<mxfile host="app.diagrams.net" modified="2023-11-29T12:22:52.752Z" agent="Mozilla/5.0 (Macintosh; Intel Mac OS X 10_15_7) AppleWebKit/537.36 (KHTML, like Gecko) Chrome/119.0.0.0 Safari/537.36" etag="cWxcku4mtc57D5b10MN-" version="22.1.4" type="device">
  <diagram name="Page-1" id="8zwBPbk5XbNeeR07Olvg">
    <mxGraphModel dx="1080" dy="723" grid="1" gridSize="10" guides="1" tooltips="1" connect="1" arrows="1" fold="1" page="1" pageScale="1" pageWidth="850" pageHeight="1100" math="0" shadow="0">
      <root>
        <mxCell id="0" />
        <mxCell id="1" parent="0" />
        <mxCell id="fFpRM9T_g1Zg0k8oakR_-2" value="" style="rounded=1;whiteSpace=wrap;html=1;labelBackgroundColor=none;" vertex="1" parent="1">
          <mxGeometry x="230" y="170" width="390" height="800" as="geometry" />
        </mxCell>
        <mxCell id="fFpRM9T_g1Zg0k8oakR_-5" value="" style="group;rounded=1;labelBackgroundColor=none;" vertex="1" connectable="0" parent="1">
          <mxGeometry x="305" y="100" width="240" height="60" as="geometry" />
        </mxCell>
        <mxCell id="fFpRM9T_g1Zg0k8oakR_-3" value="&lt;font style=&quot;font-size: 20px;&quot;&gt;Laundry Management&lt;/font&gt;" style="text;html=1;strokeColor=none;fillColor=none;align=center;verticalAlign=middle;whiteSpace=wrap;rounded=1;labelBackgroundColor=none;" vertex="1" parent="fFpRM9T_g1Zg0k8oakR_-5">
          <mxGeometry width="240" height="30" as="geometry" />
        </mxCell>
        <mxCell id="fFpRM9T_g1Zg0k8oakR_-4" value="USE CASE" style="text;html=1;strokeColor=none;fillColor=none;align=center;verticalAlign=middle;whiteSpace=wrap;rounded=1;labelBackgroundColor=none;" vertex="1" parent="fFpRM9T_g1Zg0k8oakR_-5">
          <mxGeometry x="78" y="30" width="85" height="30" as="geometry" />
        </mxCell>
        <mxCell id="fFpRM9T_g1Zg0k8oakR_-6" value="Customer" style="shape=umlActor;verticalLabelPosition=bottom;verticalAlign=top;html=1;outlineConnect=0;rounded=1;labelBackgroundColor=none;" vertex="1" parent="1">
          <mxGeometry x="80" y="220" width="30" height="60" as="geometry" />
        </mxCell>
        <mxCell id="fFpRM9T_g1Zg0k8oakR_-9" value="System&lt;br&gt;" style="shape=umlActor;verticalLabelPosition=bottom;verticalAlign=top;html=1;outlineConnect=0;rounded=1;labelBackgroundColor=none;" vertex="1" parent="1">
          <mxGeometry x="680" y="280" width="30" height="60" as="geometry" />
        </mxCell>
        <mxCell id="fFpRM9T_g1Zg0k8oakR_-10" value="Laundry Staff&lt;br&gt;" style="shape=umlActor;verticalLabelPosition=bottom;verticalAlign=top;html=1;outlineConnect=0;rounded=1;labelBackgroundColor=none;" vertex="1" parent="1">
          <mxGeometry x="680" y="390" width="30" height="60" as="geometry" />
        </mxCell>
        <mxCell id="fFpRM9T_g1Zg0k8oakR_-11" value="Manager" style="shape=umlActor;verticalLabelPosition=bottom;verticalAlign=top;html=1;outlineConnect=0;rounded=1;labelBackgroundColor=none;" vertex="1" parent="1">
          <mxGeometry x="680" y="500" width="30" height="60" as="geometry" />
        </mxCell>
        <mxCell id="fFpRM9T_g1Zg0k8oakR_-13" value="Payment Gateway" style="shape=umlActor;verticalLabelPosition=bottom;verticalAlign=top;html=1;outlineConnect=0;rounded=1;labelBackgroundColor=none;" vertex="1" parent="1">
          <mxGeometry x="680" y="610" width="30" height="60" as="geometry" />
        </mxCell>
        <mxCell id="fFpRM9T_g1Zg0k8oakR_-14" value="&lt;font style=&quot;font-size: 10px;&quot;&gt;Place Order&lt;/font&gt;" style="ellipse;whiteSpace=wrap;html=1;rounded=1;labelBackgroundColor=none;" vertex="1" parent="1">
          <mxGeometry x="260" y="200" width="70" height="30" as="geometry" />
        </mxCell>
        <mxCell id="fFpRM9T_g1Zg0k8oakR_-15" value="&lt;font style=&quot;font-size: 10px;&quot;&gt;Track Order Status&lt;/font&gt;" style="ellipse;whiteSpace=wrap;html=1;rounded=1;labelBackgroundColor=none;" vertex="1" parent="1">
          <mxGeometry x="340" y="200" width="70" height="30" as="geometry" />
        </mxCell>
        <mxCell id="fFpRM9T_g1Zg0k8oakR_-16" value="&lt;font style=&quot;font-size: 10px;&quot;&gt;View Order History&lt;/font&gt;" style="ellipse;whiteSpace=wrap;html=1;rounded=1;labelBackgroundColor=none;" vertex="1" parent="1">
          <mxGeometry x="420" y="200" width="70" height="30" as="geometry" />
        </mxCell>
        <mxCell id="fFpRM9T_g1Zg0k8oakR_-17" value="&lt;font style=&quot;font-size: 10px;&quot;&gt;Make Payment&lt;/font&gt;" style="ellipse;whiteSpace=wrap;html=1;rounded=1;labelBackgroundColor=none;" vertex="1" parent="1">
          <mxGeometry x="500" y="200" width="70" height="30" as="geometry" />
        </mxCell>
        <mxCell id="fFpRM9T_g1Zg0k8oakR_-18" value="&lt;font style=&quot;font-size: 10px;&quot;&gt;Receive Order&lt;/font&gt;" style="ellipse;whiteSpace=wrap;html=1;rounded=1;labelBackgroundColor=none;" vertex="1" parent="1">
          <mxGeometry x="260" y="240" width="70" height="30" as="geometry" />
        </mxCell>
        <mxCell id="fFpRM9T_g1Zg0k8oakR_-19" value="&lt;font style=&quot;font-size: 10px;&quot;&gt;Process Order&lt;/font&gt;" style="ellipse;whiteSpace=wrap;html=1;rounded=1;labelBackgroundColor=none;" vertex="1" parent="1">
          <mxGeometry x="355" y="240" width="70" height="30" as="geometry" />
        </mxCell>
        <mxCell id="fFpRM9T_g1Zg0k8oakR_-20" value="&lt;font style=&quot;font-size: 10px;&quot;&gt;Update Order Status&lt;/font&gt;" style="ellipse;whiteSpace=wrap;html=1;rounded=1;labelBackgroundColor=none;" vertex="1" parent="1">
          <mxGeometry x="430" y="250" width="70" height="30" as="geometry" />
        </mxCell>
        <mxCell id="fFpRM9T_g1Zg0k8oakR_-21" value="&lt;font style=&quot;font-size: 10px;&quot;&gt;Generate Invoice&lt;/font&gt;" style="ellipse;whiteSpace=wrap;html=1;rounded=1;labelBackgroundColor=none;" vertex="1" parent="1">
          <mxGeometry x="520" y="240" width="70" height="30" as="geometry" />
        </mxCell>
        <mxCell id="fFpRM9T_g1Zg0k8oakR_-22" value="&lt;font style=&quot;font-size: 10px;&quot;&gt;Generate Reports&lt;/font&gt;" style="ellipse;whiteSpace=wrap;html=1;rounded=1;labelBackgroundColor=none;" vertex="1" parent="1">
          <mxGeometry x="270" y="290" width="70" height="30" as="geometry" />
        </mxCell>
        <mxCell id="fFpRM9T_g1Zg0k8oakR_-23" value="&lt;font style=&quot;font-size: 8px;&quot;&gt;Send Order Status Notification&lt;/font&gt;" style="ellipse;whiteSpace=wrap;html=1;rounded=1;labelBackgroundColor=none;" vertex="1" parent="1">
          <mxGeometry x="350" y="290" width="70" height="30" as="geometry" />
        </mxCell>
        <mxCell id="fFpRM9T_g1Zg0k8oakR_-26" value="&lt;font style=&quot;font-size: 10px;&quot;&gt;Verify Payment Status&lt;/font&gt;" style="ellipse;whiteSpace=wrap;html=1;rounded=1;labelBackgroundColor=none;" vertex="1" parent="1">
          <mxGeometry x="285" y="360" width="70" height="30" as="geometry" />
        </mxCell>
        <mxCell id="fFpRM9T_g1Zg0k8oakR_-27" value="&lt;font style=&quot;font-size: 10px;&quot;&gt;Process Payment&lt;/font&gt;" style="ellipse;whiteSpace=wrap;html=1;rounded=1;labelBackgroundColor=none;" vertex="1" parent="1">
          <mxGeometry x="500" y="300" width="70" height="30" as="geometry" />
        </mxCell>
        <mxCell id="fFpRM9T_g1Zg0k8oakR_-28" value="&lt;font style=&quot;font-size: 10px;&quot;&gt;Generate Invoice&lt;/font&gt;" style="ellipse;whiteSpace=wrap;html=1;rounded=1;labelBackgroundColor=none;" vertex="1" parent="1">
          <mxGeometry x="425" y="300" width="70" height="30" as="geometry" />
        </mxCell>
        <mxCell id="fFpRM9T_g1Zg0k8oakR_-29" value="&lt;font style=&quot;font-size: 10px;&quot;&gt;Machine Operator&lt;br&gt;ironer, Dryer, Washer,Packing&lt;br&gt;&lt;/font&gt;" style="shape=umlActor;verticalLabelPosition=bottom;verticalAlign=top;html=1;outlineConnect=0;rounded=1;labelBackgroundColor=none;" vertex="1" parent="1">
          <mxGeometry x="780" y="320" width="20" height="40" as="geometry" />
        </mxCell>
        <mxCell id="fFpRM9T_g1Zg0k8oakR_-30" value="&lt;font style=&quot;font-size: 10px;&quot;&gt;POS&lt;/font&gt;" style="shape=umlActor;verticalLabelPosition=bottom;verticalAlign=top;html=1;outlineConnect=0;rounded=1;labelBackgroundColor=none;" vertex="1" parent="1">
          <mxGeometry x="780" y="420" width="20" height="40" as="geometry" />
        </mxCell>
        <mxCell id="fFpRM9T_g1Zg0k8oakR_-33" value="&lt;font style=&quot;font-size: 10px;&quot;&gt;Tagger&lt;/font&gt;" style="shape=umlActor;verticalLabelPosition=bottom;verticalAlign=top;html=1;outlineConnect=0;rounded=1;labelBackgroundColor=none;" vertex="1" parent="1">
          <mxGeometry x="780" y="500" width="20" height="40" as="geometry" />
        </mxCell>
      </root>
    </mxGraphModel>
  </diagram>
</mxfile>
